<svg xmlns="http://www.w3.org/2000/svg" viewBox="0 0 3383.6 3904.49"><defs><style>.cls-1{fill:#231f20;}</style></defs><title>bushcraft_logo</title><g id="Layer_2" data-name="Layer 2"><g id="Layer_1-2" data-name="Layer 1"><path class="cls-1" d="M2013.64,0c8,84.3,15.86,168.61,24.13,252.88,7.34,74.77-12.18,108.08-94,71.88-43.67-19.32-93.39-24.95-141.76-37.1C1815.81,167.93,1920.54,101,1964.52,0Z"/><path class="cls-1" d="M0,2013.64c33.14-46,63.49-94.29,99.95-137.45,119.63-141.62,123.19-138.66,214.16,20.63,33.7,59,30,79.64-38.52,98.19-91,24.63-183.28,31.9-275.59,43.18Q0,2025.92,0,2013.64Z"/><path class="cls-1" d="M1424.28,0c21.39,22.66,44.52,44,63.58,68.46,13,16.74,49,32.39,26,56.77-20.4,21.59-54.11,39.67-83,41.46-26.2,1.62-28.29-34.53-29.67-58C1399,72.53,1400,36.23,1399.72,0Z"/><path class="cls-1" d="M1009.46,2086.44c3-28.32-18.34-75,38.94-66.35,54.91,8.31,125.3-36.62,161.42,45,19.74,44.6,44.63,87,67.78,130,20.6,38.32,42,76.21,66.1,119.78,53.27-40.51,32.66-88.68,29.68-127.34q-32.91-427.53-73.08-854.48c-7-73.92,4.69-109.84,91.8-111.62,65.07-1.33,79.47,12.47,85.79,75.5,28.53,284.23,63.87,567.78,97,851.54,3.16,27.11-1.12,57.18,42.24,88.39,9.34-234.76,19.41-458.08,26.66-681.5,4.37-134.81,8.88-269.9,4.62-404.6-2.52-79.43,44.11-67.64,93.6-71.44,58.24-4.48,75.83,14.44,76.85,74.16,5.4,318.57,15.18,637.07,24.79,955.56,1.16,38.46-14.11,80.85,33.42,133,12.58-99.21,24.87-182.73,33.46-266.64,20-194.93,36-390.28,58.47-584.9,5.9-51-20.69-126.85,88.48-120,104.38,6.52,75.48,68.84,75,125.46-.12,16.23,1.5,32.48,2.32,48.72-35.35,84,15.35,164.21,10.92,246.81-.57,53.65,2.82,107.58-8,160.6-35.33,106.76-3.36,220.73-27.62,305,3.24-18,10.19-59.57,16.32-101.45,15.19-103.89,34.83-206.11,101.2-292.19,19.21-10.33,38.1-10.94,56.51,1.95,78.86,29.92,101.94,69.69,77.7,164.29-74.81,292-140,587-253.17,866.62C1990,3089.46,1945.58,3389.52,1963.5,3704.2c11.38,199.77,2.13,200.3-203,200.3-214.64,0-214.64,0-214.64-215.43,0-81.81-9.33-164.94,1.91-245.17,24.69-176.17-45.21-316.48-148.51-447.85-117.69-108.88-165.16-261.06-243.58-394.25C1093.76,2433.76,1024.81,2267.69,1009.46,2086.44Z"/><path class="cls-1" d="M733.6,2798.3c-53.23,16.2-87.54,72.54-157.7,73.3,6.44-230.48,68.73-425.43,283-543.08,75.34-36.93,113.66-17.46,121.36,65.91,6.44,69.71-21.5,134.31-37.68,200.46a160.54,160.54,0,0,1-18.76,52.59C864.65,2702.9,809.9,2764.2,733.6,2798.3Z"/><path class="cls-1" d="M2772.44,465.15c-10.32,226.06-38.12,417.28-219,542.93-33.64,23.37-76.45,69.64-115.57,38.88-31.78-25-28.91-81.55-22.74-126.81C2444.17,707.23,2578.16,577.3,2772.44,465.15Z"/><path class="cls-1" d="M248.35,1243.53c301.52-86.28,505.42-31,632.49,171.61C676.79,1536,388.92,1457.85,248.35,1243.53Z"/><path class="cls-1" d="M1368.26,1148.84c-232.4-39.1-363.5-210.39-398.93-521.25C1232.36,690.17,1394.25,901.69,1368.26,1148.84Z"/><path class="cls-1" d="M2925.83,2784.24c-235.23-67.46-416.39-159.69-486-392.34-24.38-81.53,3-101.46,80.61-85,168,35.66,265.56,150.4,335.32,295.57C2880.34,2653.57,2897,2708.47,2925.83,2784.24Z"/><path class="cls-1" d="M2801.65,1084.33c-143.55,188.9-298.09,328.23-548.52,295.59-70.06-9.13-67.19-32.58-40.78-85.34C2298.15,1123.25,2605.47,1023.35,2801.65,1084.33Z"/><path class="cls-1" d="M2271.55,89.36c92.09,281.47,32.52,500.56-172.3,633.74C1979,519.24,2052.62,248.3,2271.55,89.36Z"/><path class="cls-1" d="M275.87,2505.8c36.41-212.63,202.22-395.15,389.66-436.08,96.31-21,114.12,14.9,88.12,99.41C699.31,2345.7,494.13,2491.32,275.87,2505.8Z"/><path class="cls-1" d="M1878.4,1035.67c-165.95-119.86-157.17-451.51-4.77-659.68C2041.14,588.47,2043.12,863.09,1878.4,1035.67Z"/><path class="cls-1" d="M2872.63,2066.71c-159-18.91-302.37-65.22-387.63-217.13,214.45-116.18,448.33-55.57,652,177.24l-214.31,39.9Q2897.67,2084.75,2872.63,2066.71Z"/><path class="cls-1" d="M1625.15,15.05C1742.2,211.48,1801.87,396.48,1714,600.64c-15.43,35.85-32.54,89.07-75,88.1-38.76-.89-57.31-50.81-75.23-86.55C1463,401.27,1523.19,217.44,1625.15,15.05Z"/><path class="cls-1" d="M1085.64,240.42c216.72,87.88,360.86,297.76,345.49,495.29-5.09,65.42-17.91,84.72-85.66,52.44C1167.87,703.55,1064,491.46,1085.64,240.42Z"/><path class="cls-1" d="M403,581.21c235.74,6,426.4,53.63,544.11,252.14,16.63,28.05,53.36,64.35,24.93,98.31-23.46,28-68,22.28-104,18.38C647,926.15,518.12,783.66,403,581.21Z"/><path class="cls-1" d="M581.32,1605.25c190.24-105.61,380.58-163.48,588-59.47,31.3,15.69,78.17,31.09,76.3,67.41-1.8,34.93-47.93,50.68-79.44,68.51C1002.18,1774.53,759.72,1744.26,581.32,1605.25Z"/><path class="cls-1" d="M3302.91,1252c-172.83,165.26-342.13,266.61-565.8,219.83-33.4-7-79.66-8.48-87.68-50.37-6.46-33.76,27.71-56.75,51.18-78.51C2874.84,1181.49,3076.33,1200.88,3302.91,1252Z"/><path class="cls-1" d="M2372.91,617.51c34.89,214.46-62.65,438.15-228.5,532-74.42,42.1-113.78,47.21-112.59-60.85C2034,892.92,2162.76,707.8,2372.91,617.51Z"/><path class="cls-1" d="M2535.88,2795.42c-69.08-22.95-123-37-173.85-58.46-165.19-69.67-162.85-74.14-42.73-204.43,51.21-55.55,77.82-50.67,113.25,9.69C2475.47,2615.36,2519.86,2687.12,2535.88,2795.42Z"/><path class="cls-1" d="M526,2040.21c14.38-36.83,21.8-59.88,32.09-81.59,118.06-249.07,135.35-250.71,298.2-25.88C760.72,1996.63,658.61,2037.37,526,2040.21Z"/><path class="cls-1" d="M943.72,1046.5c-41.25,75.49-55.9,186.27-122,193.1-63,6.51-120.84-84.29-165.18-148.64-19.63-28.48-64.66-53.7-39.92-91.91,17.58-27.16,60.4-13.12,91.41-8.18C784,1003,862.06,1006.78,943.72,1046.5Z"/><path class="cls-1" d="M1524.77,728.51c56.76,37.12,90.73,86.84,124.11,136.57,96.85,144.25,95.74,142-69.48,186.75-73.59,19.91-108.22,3.55-102-75.46C1483.9,893.46,1482.39,808.74,1524.77,728.51Z"/><path class="cls-1" d="M2874.28,2479c-65.37-99.69-104-179.22-125-267.22-12-50.3.27-69.71,57.21-74.57,174.32-14.88,194.06,4.9,140.06,169.21C2929.34,2358.86,2904.07,2408.65,2874.28,2479Z"/><path class="cls-1" d="M2837.23,660.16c111.21,34.51,200.71,99.73,291.21,190.35-41.47,13.05-70.12,25.19-100,31C2767.68,932,2752.83,915.14,2837.23,660.16Z"/><path class="cls-1" d="M956.05,1905.06c39.68-56.49,87.17-86.51,135.34-116.41,158.24-98.21,156-96.86,194.15,87.17,12.89,62.13,3.46,80.5-58.7,77.7C1137.2,1949.48,1048.25,1944.72,956.05,1905.06Z"/><path class="cls-1" d="M2826.1,965.16c119.15-21,226.77-3.75,347.24,30.87-65,93.72-155.06,142.75-249.72,185.42-39.06,17.61-46.67-7-53.31-39.75C2858.36,1083,2841.43,1025.24,2826.1,965.16Z"/><path class="cls-1" d="M203.15,1093.07c64.54-74.33,133.63-100.28,196.08-137,88.16-51.82,126.42-27.13,138.92,71.63,16.1,127.21,5.28,144-120.21,122.27C351.06,1138.4,286.14,1115.51,203.15,1093.07Z"/><path class="cls-1" d="M2734.27,344.32c-33.35,73.63-80.53,112.07-123.89,151.8-125.53,115-126.81,110.25-197.16-42.47-40.15-87.16-7-107.52,68.94-109C2561.56,343.12,2641,344.32,2734.27,344.32Z"/><path class="cls-1" d="M3368.8,2267.62c-76.91,57.39-160.9,41.06-238,53.36-84,13.41-110.13-18.67-86.93-106.56,39.12-148.2,41.62-153.09,173.9-69.68,34.06,21.48,65.62,47.11,97.17,72.27C3333.26,2231.59,3349.23,2249,3368.8,2267.62Z"/><path class="cls-1" d="M2709.82,2236c-78.38,0-135.09,2.8-191.43-.52-171-10.08-175.92-26.3-103-179,37.72-79,70.89-70.8,121.09-19.91,25.73,26.08,54.56,49.33,78.54,76.86C2643.87,2146.46,2669,2182.74,2709.82,2236Z"/><path class="cls-1" d="M2182.18,1620.29c26.32-149.81,28.24-152.07,160.93-88.9,59.38,28.27,122.28,54,170.25,112.81-65.52,46.6-140.13,49.76-205.14,77.18C2177.46,1754.58,2157.63,1738.67,2182.18,1620.29Z"/><path class="cls-1" d="M891.43,1317.18c86.7-69.23,172.7-91.23,258.28-113.4,49.72-12.88,78.86-9.28,80.57,60,4.41,179.09-8.42,193.22-172.84,131.63C1005,1375.8,955.74,1347.81,891.43,1317.18Z"/><path class="cls-1" d="M262.72,1677.53c70.12,9.15,129.81,12.82,187.62,25.26,165.89,35.71,162.38,39.07,74.51,187.72C481,1964.66,453,1956.43,405.46,1901,350.7,1837.18,291.86,1776.95,262.72,1677.53Z"/><path class="cls-1" d="M920.15,239.65C973.92,288.8,994.8,342.06,1018,393.07c71.56,157.62,60,169.43-111.92,176-74.86,2.87-80.35-27.5-71.82-84.3C847,399.75,875.1,320.4,920.15,239.65Z"/><path class="cls-1" d="M3207.61,1762.08c-121.4,47.76-231.06,32.7-338.18,28.68-3.6-6.94-7.09-10.42-6.51-13,16.47-73.43,17.25-199.78,75.37-200.69C3040.51,1575.47,3120.18,1670.63,3207.61,1762.08Z"/><path class="cls-1" d="M245.69,2293.72c-25.63-60.54-26.39-105.42-12.93-147.92,11.25-35.53-10.74-96.34,38.73-101.69,38.92-4.21,82.36,26.92,122.74,44.74,33.65,14.85,20.13,35.3,4.89,57.35C359.69,2203.25,311,2249.38,245.69,2293.72Z"/><path class="cls-1" d="M2577.16,1582.16c81.24-38.56,161.76-39.42,252-29-29.25,88.85-92.78,158.4-168.33,174.57C2618.15,1736.88,2604.69,1634.55,2577.16,1582.16Z"/><path class="cls-1" d="M128.19,1591c.42-65.36,36.2-100.9,63.73-138.25,22.46-30.47,43.5-88.19,86.32-68.92,35.27,15.88,56.51,66.85,79.55,104.94,25.36,41.93-17.1,49.08-39.2,55.76C257.79,1562.92,195.14,1575.16,128.19,1591Z"/><path class="cls-1" d="M2351.46,3017.5c-91-46.28-174.64-87.77-187.94-167.9-7.21-43.47,84.09-60.52,133.51-90.83C2346.28,2835.37,2349.3,2919.3,2351.46,3017.5Z"/><path class="cls-1" d="M1207.67,195.67c60.3,0,103.33-1.12,146.28.21,125.16,3.89,129.28,16.8,77.74,131-25.43,56.36-48.08,53.7-87.73,21.11C1297.66,309.93,1248.44,274.93,1207.67,195.67Z"/><path class="cls-1" d="M3372,1565.46c-28.29,11.41-49.72,23.53-72.72,28.8-200.45,46-201.82,44.21-146.77-158.59C3235.17,1459.14,3310,1494.62,3372,1565.46Z"/><path class="cls-1" d="M483.27,847.81C402.1,899.54,329,916.4,240.4,914.59,256.58,828.32,299,746.72,367.59,723.93,424.62,705,437.79,804.07,483.27,847.81Z"/><path class="cls-1" d="M972.52,2091.92c22.18,117-96.75,141.4-141,214.79-47.67-68.94-19.78-144.13-15.49-216.48,2.49-41.92,29.21-48,66.65-28.83C910.53,2075.64,942.42,2082,972.52,2091.92Z"/><path class="cls-1" d="M517.65,454.32C567,425.4,615.21,423.27,662,413.13,768.75,390,775.27,441.59,758.81,524.73c-11.11,56.12-34.22,67-82.61,40.87C622.63,536.68,567.07,511.13,517.65,454.32Z"/><path class="cls-1" d="M3287.08,2048.85c-53.5-15.65-82.09-51.44-109.83-83.91-23.79-27.84-79-56-50.06-96.1,22.83-31.69,75.07-43.29,115.55-60.81,34.15-14.78,42.9,12.29,45.19,36.55C3294.23,1911.33,3302.5,1978.56,3287.08,2048.85Z"/><path class="cls-1" d="M328.15,1610.67c69-27.5,107.53-91.09,169.72-53.86,25.83,15.46,29.86,74.78,8,88.29C453.27,1677.69,400.7,1644.25,328.15,1610.67Z"/><path class="cls-1" d="M3005,2364.3c46.77,30.68,89,64.18,109.89,127.54-60.79,18.66-111-10-164.1-16.45C2953.42,2428,2977.26,2396.33,3005,2364.3Z"/><path class="cls-1" d="M497.52,2680c-43.2-51.21-34.88-105.8-22.76-164.61,39.59,10.15,100.76-5.17,106,36.87C587,2602.57,543.66,2646.39,497.52,2680Z"/><path class="cls-1" d="M2514.3,207.69c-32.8,52.73-74.36,94.62-133.33,80.83-32.59-7.62-36.39-62.44-20.78-84.3C2405.67,140.49,2460,209.25,2514.3,207.69Z"/><path class="cls-1" d="M644.27,271.23c78.2-18.36,138-45.62,184.66,11.87,9.21,11.37-18.08,77.59-35.81,81C727.7,376.83,701.9,315.45,644.27,271.23Z"/><path class="cls-1" d="M3010.06,2710c-61.81-25.79-94.28-69-98.13-125.54-.53-7.73,66.2-36.68,84.14-26C3059.84,2596.2,3003,2656.51,3010.06,2710Z"/><path class="cls-1" d="M3319.62,1175.52c-65.35.29-130.49,22.7-163.18-42.63-9.21-18.41,19.88-78.24,46.48-75.18C3262,1064.49,3292.13,1116.13,3319.62,1175.52Z"/><path class="cls-1" d="M3383.6,1461.26c-52.91-21.58-129.57-4.86-136.54-77.1-1.79-18.59,48.74-63.34,64.21-58.77C3373,1343.63,3369.92,1407.31,3383.6,1461.26Z"/><path class="cls-1" d="M220.93,1169c-38.63,44.36-80,77.71-145.89,85.21,1.93-58.48,7.62-117.67,52.64-142.73C163.64,1091.49,191.25,1142.64,220.93,1169Z"/><path class="cls-1" d="M1015.8,1016.85c49.67,35.28,102.1,68.38,87.61,130.08-3.51,15-70.38,35.28-83.15,24.24C969.9,1127.65,1017.13,1070.87,1015.8,1016.85Z"/><path class="cls-1" d="M2849.54,602.32c-.85-46.57-24.24-97.79,13.3-108.68,49.59-14.38,100.33,13.94,137.76,55.85C2960.12,590.91,2907.84,593.9,2849.54,602.32Z"/><path class="cls-1" d="M2600.47,1494.82c-55,23.23-106.75,62.19-155.21,16.39-10.62-10-.07-67.07,15.89-76.34C2525.58,1397.49,2551.13,1474.4,2600.47,1494.82Z"/><path class="cls-1" d="M909,2601.78c97.51-132,171.06-52.9,244.44,27.74,14.8,24.25,30.5,47.88-5.88,68.5-86.59,49.1-172.06,100.83-289.4,107.31,19.68-63.81,36.77-119.2,53.86-174.62Q910.53,2616.21,909,2601.78Z"/><path class="cls-1" d="M1076.78,3037.46c2.87-55.38-1.32-100.22,9.27-141.25,9.32-36.11,3.44-99.07,45.27-100.73,42.21-1.68,88.18,32,128.35,56.94,31.67,19.64,5.49,41.71-9.77,58.31C1203.92,2960.74,1154.24,3006.09,1076.78,3037.46Z"/></g></g></svg>